<svg xmlns="http://www.w3.org/2000/svg" xmlns:xlink="http://www.w3.org/1999/xlink" preserveAspectRatio="xMidYMid" width="750" height="256.781" viewBox="0 0 750 256.781"> <defs> <linearGradient id="bg-gradient" x1="0%" y1="0%" x2="0%" y2="100%"> <stop offset="0%" style="stop-color:#0168b7;stop-opacity:1"/> <stop offset="100%" style="stop-color:#23e8ff;stop-opacity:1"/> </linearGradient> </defs> <path fill="url(#bg-gradient)" d="M0.000,0.000 C249.975,0.000 500.025,0.000 750.000,0.000 C750.000,60.661 750.000,121.339 750.000,182.000 C693.110,207.905 629.871,224.813 561.000,240.000 C531.336,243.666 501.664,247.334 472.000,251.000 C434.580,257.236 379.606,257.516 338.000,256.000 C298.289,254.553 268.475,254.140 235.000,248.000 C186.863,239.170 139.674,233.348 96.000,220.000 C62.799,209.853 31.279,195.188 0.000,185.000 C0.000,123.339 0.000,61.660 0.000,0.000 Z"/>
</svg>
