<svg xmlns="http://www.w3.org/2000/svg" xmlns:xlink="http://www.w3.org/1999/xlink" preserveAspectRatio="xMidYMid" width="720" height="111.125" viewBox="0 0 720 111.125"> <defs> <linearGradient id="bg-layer1" x1="0%" y1="0%" x2="0%" y2="100%"> <stop offset="0%" style="stop-color:#71c2ff;stop-opacity:0.1"/> <stop offset="100%" style="stop-color:#bdecff;stop-opacity:0.1"/> </linearGradient> </defs> <path fill="url(#bg-layer1)" d="M654.000,0.125 C679.094,-0.343 702.626,0.194 720.000,7.125 C719.667,40.788 719.333,74.462 719.000,108.125 C718.333,109.125 717.667,110.125 717.000,111.125 C479.024,110.792 240.976,110.458 3.000,110.125 C2.000,109.458 1.000,108.792 0.000,108.125 C0.000,100.792 0.000,93.458 0.000,86.125 C30.997,74.793 62.003,63.457 93.000,52.125 C134.308,39.196 176.322,31.520 224.000,24.125 C266.728,17.498 298.337,32.709 328.000,40.125 C352.997,44.125 378.002,48.125 403.000,52.125 C480.159,64.158 537.146,35.205 586.000,16.125 C606.570,8.091 631.847,9.368 654.000,0.125 Z"/>
</svg>
