<svg xmlns="http://www.w3.org/2000/svg" xmlns:xlink="http://www.w3.org/1999/xlink" preserveAspectRatio="xMidYMid" width="720" height="92" viewBox="0 0 720 92"> <defs> <linearGradient id="bg-layer2" x1="0%" y1="0%" x2="0%" y2="100%"> <stop offset="0%" style="stop-color:#71c1ff;stop-opacity:0.2"/> <stop offset="100%" style="stop-color:#bbeaff;stop-opacity:0.2"/> </linearGradient> </defs> <path fill="url(#bg-layer2)" d="M565.000,0.000 C603.920,-0.705 617.400,15.749 640.000,30.000 C663.585,44.872 690.044,60.693 720.000,68.000 C719.667,74.999 719.333,82.001 719.000,89.000 C718.333,90.000 717.667,91.000 717.000,92.000 C479.024,91.667 240.976,91.333 3.000,91.000 C2.000,90.333 1.000,89.667 0.000,89.000 C0.333,65.336 0.667,41.664 1.000,18.000 C56.920,8.860 122.553,-10.203 182.000,13.000 C228.953,31.326 290.255,86.508 364.000,74.000 C389.207,69.725 410.952,66.756 431.000,58.000 C454.998,44.335 479.002,30.665 503.000,17.000 C521.956,8.692 543.452,8.707 565.000,0.000 Z"/>
</svg>
